<?xml version="1.0" encoding="UTF-8" standalone="no"?>
<!-- Created with Inkscape (http://www.inkscape.org/) -->

<svg
   width="210mm"
   height="297mm"
   viewBox="0 0 210 297"
   version="1.1"
   id="svg1"
   sodipodi:docname="loco.svg"
   inkscape:version="1.3.2 (091e20e, 2023-11-25)"
   xmlns:inkscape="http://www.inkscape.org/namespaces/inkscape"
   xmlns:sodipodi="http://sodipodi.sourceforge.net/DTD/sodipodi-0.dtd"
   xmlns="http://www.w3.org/2000/svg"
   xmlns:svg="http://www.w3.org/2000/svg">
  <sodipodi:namedview
     id="namedview1"
     pagecolor="#ffffff"
     bordercolor="#000000"
     borderopacity="0.25"
     inkscape:showpageshadow="2"
     inkscape:pageopacity="0.0"
     inkscape:pagecheckerboard="0"
     inkscape:deskcolor="#d1d1d1"
     inkscape:document-units="mm"
     inkscape:zoom="0.53381581"
     inkscape:cx="342.81488"
     inkscape:cy="305.34877"
     inkscape:window-width="1512"
     inkscape:window-height="863"
     inkscape:window-x="0"
     inkscape:window-y="136"
     inkscape:window-maximized="1"
     inkscape:current-layer="svg1" />
  <defs
     id="defs1">
    <clipPath
       clipPathUnits="userSpaceOnUse"
       id="clipPath148">
      <path
         d="M 0,1080 H 1920 V 0 H 0 Z"
         transform="translate(-433.16799,-733.74322)"
         id="path148" />
    </clipPath>
    <clipPath
       clipPathUnits="userSpaceOnUse"
       id="clipPath151">
      <path
         d="M 0,1080 H 1920 V 0 H 0 Z"
         transform="translate(-501.92971,-733.15872)"
         id="path151" />
    </clipPath>
    <clipPath
       clipPathUnits="userSpaceOnUse"
       id="clipPath154">
      <path
         d="M 0,1080 H 1920 V 0 H 0 Z"
         transform="translate(-587.91751,-691.96532)"
         id="path154" />
    </clipPath>
    <clipPath
       clipPathUnits="userSpaceOnUse"
       id="clipPath157">
      <path
         d="M 0,1080 H 1920 V 0 H 0 Z"
         transform="translate(-602.15582,-752.39552)"
         id="path157" />
    </clipPath>
    <clipPath
       clipPathUnits="userSpaceOnUse"
       id="clipPath159">
      <path
         d="M 0,1080 H 1920 V 0 H 0 Z"
         transform="translate(-655.11039,-696.71291)"
         id="path159" />
    </clipPath>
    <clipPath
       clipPathUnits="userSpaceOnUse"
       id="clipPath161">
      <path
         d="M 0,1080 H 1920 V 0 H 0 Z"
         transform="translate(-680.03559,-712.55322)"
         id="path161" />
    </clipPath>
    <clipPath
       clipPathUnits="userSpaceOnUse"
       id="clipPath163">
      <path
         d="M 0,1080 H 1920 V 0 H 0 Z"
         transform="translate(-122.85008,-763.24802)"
         id="path163" />
    </clipPath>
    <clipPath
       clipPathUnits="userSpaceOnUse"
       id="clipPath165">
      <path
         d="M 0,1080 H 1920 V 0 H 0 Z"
         transform="translate(-737.45852,-676.73332)"
         id="path165" />
    </clipPath>
  </defs>
  <g
     inkscape:label="Capa 1"
     inkscape:groupmode="layer"
     id="layer1" />
  <g
     id="g140"
     aria-label="H&#10;y&#10;p&#10;e&#10;r"
     transform="matrix(0.17638252,0.00149927,-0.00149927,0.17638252,57.119567,139.73961)">
    <path
       id="path141"
       d="m 52.149585,-39.984777 0.0035,-27.165074 c -0.0044,-1.201178 0.406014,-2.212515 1.228163,-3.033986 0.819169,-0.827305 1.832298,-1.240228 3.036405,-1.244604 1.201204,-0.0014 2.212566,0.411873 3.034086,1.239881 0.82733,0.822099 1.240253,1.835228 1.244604,3.036406 l -0.0047,62.8734045 c 0.0014,1.2041327 -0.411823,2.2184243 -1.239781,3.0458041 -0.822174,0.81854131 -1.835328,1.22853487 -3.036506,1.232885397361 C 55.211248,0.00138584 54.199911,-0.40897816 53.381395,-1.2282224 52.559874,-2.0562305 52.149856,-3.0723134 52.14841,-4.2764462 l 0.0035,-27.1650738 -38.849042,0.0021 -0.0035,27.1650738 c 0.0014,1.2041328 -0.411823,2.2184243 -1.239781,3.0458042 C 11.237438,-0.40708817 10.22426,-2.4178531e-5 9.0230815,0.00432634 7.818874,-0.00301656 6.8046074,-0.41335566 5.9772773,-1.2354548 5.1557567,-2.0634629 4.7457382,-3.0795458 4.7442923,-4.2836786 l 0.00465,-62.8734044 c -0.00435,-1.201178 0.4060135,-2.212515 1.2281624,-3.033986 0.8279583,-0.82738 1.8440412,-1.237399 3.0482238,-1.232985 1.2012035,-0.0014 2.2125655,0.411872 3.0340855,1.23988 0.827331,0.8221 1.240254,1.835228 1.244604,3.036406 l -0.0035,27.165074 z m 0,0"
       style="fill:#9944f7 icc-color(sRGB-IEC61966-2, 0.1, 0.59999084, 0.26699829, 0.96899414);fill-opacity:1;fill-rule:nonzero;stroke:none" />
    <path
       id="path142"
       d="m 110.16715,-5.9942637 c -2.14661,1.143287 -4.51781,1.7142436 -7.11069,1.712845 l -18.527973,0.00514 c -2.150437,0.00363 -4.193037,-0.4038279 -6.127823,-1.2253029 -1.928978,-0.8273841 -3.608526,-1.9527974 -5.032811,-3.3792194 -1.42719,-1.423468 -2.551845,-3.101469 -3.371035,-5.034029 -0.822169,-1.938394 -1.229185,-3.97993 -1.224026,-6.130442 l -0.0071,-25.65321 c -0.0043,-1.19532 0.405964,-2.218375 1.227864,-3.069142 0.818921,-0.856601 1.831924,-1.284172 3.036107,-1.279758 1.201203,-0.0014 2.21269,0.42652 3.034484,1.286754 0.827604,0.854324 1.240602,1.876241 1.244903,3.071561 l 0.0071,25.65321 c -0.0062,2.02454 0.688001,3.732568 2.082716,5.127013 1.394716,1.394446 3.102854,2.091867 5.127319,2.089307 l 18.527965,-0.0051 c 2.02156,3.96e-4 3.71196,-0.699544 5.06833,-2.093936 1.36222,-1.394441 2.04792,-3.10248 2.05415,-5.12702 l -0.007,-25.65321 c -0.004,-1.195319 0.40596,-2.218375 1.22786,-3.069141 0.82771,-0.856676 1.84365,-1.284272 3.04783,-1.279859 1.2012,-0.0014 2.23026,0.426372 3.08136,1.286356 0.8569,0.854076 1.28747,1.875843 1.29177,3.071163 l -0.001,49.490079 c -10e-4,2.6016677 -0.49346,5.0229304 -1.47344,7.266693 -0.97408,2.249571 -2.30215,4.215032 -3.9813,5.893428 -1.68209,1.67842 -3.6484,3.007681 -5.89601,3.987758 -2.24175,0.980028 -4.66346,1.469379 -7.26513,1.468055 l -24.211754,0.0066 c -1.204207,-0.0073 -2.218623,-0.435259 -3.046202,-1.286654 -0.821745,-0.854375 -1.231589,-1.84995 -1.232487,-2.989632 -0.0044,-1.204108 0.405814,-2.235952 1.227664,-3.092578 0.827685,-0.859605 1.843618,-1.287201 3.047826,-1.279859 l 24.211753,-0.0066 c 1.39754,0.0028 2.6962,-0.251442 3.89603,-0.759706 1.20573,-0.502454 2.26612,-1.214618 3.18117,-2.136491 0.92091,-0.9219233 1.6502,-1.9828479 2.18787,-3.1827739 0.54358,-1.1941165 0.81384,-2.4884526 0.81075,-3.8859378 l -0.001,-9.7855 z m 0,0"
       style="fill:#9944f7 icc-color(sRGB-IEC61966-2, 0.1, 0.59999084, 0.26699829, 0.96899414);fill-opacity:1;fill-rule:nonzero;stroke:none" />
    <path
       id="path143"
       d="m 126.12542,-24.98899 c -2.4e-4,-3.474733 0.65179,-6.732346 1.95612,-9.766979 1.30135,-3.040468 3.08654,-5.686597 5.35855,-7.932552 2.27781,-2.251864 4.93458,-4.041112 7.97031,-5.364815 3.04154,-1.329611 6.27621,-1.998731 9.69816,-2.004379 3.48354,0.0026 6.74421,0.669262 9.77909,2.00289 3.0407,1.327718 5.68685,3.115838 7.93266,5.370268 2.25161,2.248521 4.02904,4.893665 5.32936,7.935457 1.29733,3.035958 1.94614,6.294232 1.94638,9.768965 -0.003,3.422026 -0.65536,6.656202 -1.95671,9.69667 -1.29555,3.034559 -3.06596,5.6952107 -5.31128,7.9790263 -2.2483,2.2779814 -4.89334,4.0671298 -7.93516,5.3645158 -3.03601,1.29147705 -6.29726,1.93445456 -9.78078,1.93476684 -3.04111,0.00241128 -5.96944,-0.51470946 -8.79087,-1.55424204 -2.81563,-1.0454415 -5.36299,-2.5853686 -7.64504,-4.6226859 l -1.6e-4,24.797772 c 0.001,1.201203 -0.41188,2.212565 -1.23988,3.034086 -0.8221,0.82733 -1.83526,1.237324 -3.03651,1.232885 -1.20413,0.0014 -2.2184,-0.408893 -3.0457,-1.228062 -0.82147,-0.822149 -1.23147,-1.835303 -1.23289,-3.036506 z m 24.98439,16.4405761 c 2.27942,0.00406 4.41751,-0.4184222 6.41129,-1.2732904 1.9908,-0.8607027 3.73283,-2.0357077 5.22023,-3.5249667 1.48739,-1.489259 2.65918,-3.227797 3.51824,-5.221499 0.85608,-1.999536 1.28323,-4.138987 1.28141,-6.42128 0.004,-2.273555 -0.42419,-4.405734 -1.28491,-6.399466 -0.85492,-1.999642 -2.02409,-3.74465 -3.51335,-5.232045 -1.48926,-1.487396 -3.2307,-2.65623 -5.2214,-3.506527 -1.99368,-0.856132 -4.13025,-1.28916 -6.40966,-1.293223 -2.28227,0.0048 -4.42028,0.436025 -6.41109,1.296727 -1.99378,0.854869 -3.73293,2.02399 -5.22032,3.513249 -1.48745,1.4834 -2.66217,3.221963 -3.51825,5.221499 -0.85027,1.993627 -1.27749,4.124289 -1.2816,6.397843 0.002,2.282294 0.43019,4.423261 1.28511,6.422903 0.85193,1.993807 2.02404,3.73879 3.51334,5.232045 1.48926,1.487395 3.22783,2.662113 5.2215,3.5182455 1.9907,0.8502977 4.1272,1.2745361 6.40946,1.2697856 z m 0,0"
       style="fill:#9944f7 icc-color(sRGB-IEC61966-2, 0.1, 0.59999084, 0.26699829, 0.96899414);fill-opacity:1;fill-rule:nonzero;stroke:none" />
    <path
       id="path144"
       d="m 226.33078,-25.266504 c 1.14128,0.186595 2.06049,0.788179 2.75763,1.804751 0.63324,1.081571 0.85626,2.157839 0.672,3.22878 -0.57,2.9112 -1.61634,5.621363 -3.14199,8.124656 -1.51985,2.4973835 -3.35624,4.6341634 -5.51212,6.4103645 -2.15002,1.7761514 -4.58745,3.1738726 -7.31233,4.1873044 -2.71907,1.00752293 -5.56547,1.51220365 -8.54213,1.5140671 -4.36835,-0.003885752 -8.49971,-1.0791606 -12.39122,-3.234638 -3.89441,-2.1525231 -7.01465,-5.2550201 -9.3607,-9.307491 -1.71286,-2.97676 -2.75908,-6.111535 -3.13867,-9.407256 -0.37956,-3.292791 -0.15756,-6.473504 0.6689,-9.545093 0.82355,-3.068634 2.23482,-5.931319 4.22791,-8.590934 1.99304,-2.665474 4.47653,-4.848771 7.45626,-6.555801 3.92417,-2.274647 8.07188,-3.411505 12.44021,-3.410549 4.36536,-0.0049 8.48219,1.085169 12.34465,3.270191 3.86835,2.187902 6.97378,5.272946 9.31343,9.261017 0.63264,1.01126 0.79122,2.088076 0.47279,3.230473 -0.31262,1.136487 -0.97602,2.021064 -1.99314,2.653755 l -31.72115,18.235125 c 1.58387,1.589134 3.38716,2.79553 5.40989,3.6221172 2.02267,0.8207281 4.11217,1.230717 6.26854,1.235826 1.96004,9.183e-4 3.82935,-0.3313887 5.60501,-0.9968961 1.77561,-0.6713661 3.37332,-1.5902531 4.79312,-2.7595901 1.42561,-1.175246 2.62951,-2.58299 3.60874,-4.226139 0.98505,-1.649057 1.67017,-3.424476 2.05246,-5.326231 0.24764,-1.197461 0.84327,-2.128338 1.79274,-2.792683 0.95532,-0.664394 2.03171,-0.872769 3.22917,-0.625126 z m -29.34623,-13.954193 c -1.58577,0.945154 -2.98228,2.096714 -4.18951,3.45761 -1.20134,1.363776 -2.13209,2.851233 -2.79808,4.465351 -0.66011,1.616997 -1.0499,3.32545 -1.17518,5.131268 -0.12528,1.805817 0.0306,3.594596 0.46748,5.363407 l 27.46378,-15.866821 c -1.59259,-1.580271 -3.38689,-2.763304 -5.38585,-3.552006 -1.99316,-0.794611 -4.06202,-1.190126 -6.20955,-1.189451 -1.39168,-0.0028 -2.78479,0.170161 -4.17936,0.516011 -1.39748,0.348805 -2.72871,0.907992 -3.99373,1.674631 z m 0,0"
       style="fill:#9944f7 icc-color(sRGB-IEC61966-2, 0.1, 0.59999084, 0.26699829, 0.96899414);fill-opacity:1;fill-rule:nonzero;stroke:none" />
    <path
       id="path145"
       d="m 258.81846,-49.487853 c 1.20121,-0.0014 2.21257,0.411873 3.03409,1.239881 0.82733,0.822099 1.24025,1.835228 1.2446,3.036406 -0.007,1.204208 -0.42061,2.218499 -1.23978,3.045804 -0.82215,0.821471 -1.8353,1.231465 -3.0365,1.232886 l -7.78157,-0.0042 c -2.03325,0.0026 -3.74431,0.685171 -5.13903,2.047661 -1.38891,1.356581 -2.0806,3.050022 -2.07799,5.080346 l -0.007,29.5323748 c 0.001,1.2041328 -0.41182,2.2184243 -1.23978,3.0458041 -0.82215,0.8214709 -1.83533,1.22853489 -3.03651,1.23288541 -1.20421,-0.0073429 -2.21847,-0.417682 -3.0458,-1.23978111 -0.82145,-0.8192194 -1.23144,-1.8323727 -1.23289,-3.0365055 l 0.007,-29.5323747 c -0.004,-2.217818 0.40313,-4.275065 1.2249,-6.174697 0.82758,-1.90554 1.95315,-3.567511 3.37962,-4.985937 1.42349,-1.42426 3.10162,-2.534267 5.03443,-3.324162 1.92983,-0.795728 3.97434,-1.19691 6.13064,-1.20059 z m 0,0"
       style="fill:#9944f7 icc-color(sRGB-IEC61966-2, 0.1, 0.59999084, 0.26699829, 0.96899414);fill-opacity:1;fill-rule:nonzero;stroke:none" />
  </g>
  <path
     id="path146"
     d="m 108.44086,131.44588 c 0.59118,-0.0165 1.15032,0.0863 1.67846,0.30799 0.52916,0.22221 1.00459,0.54157 1.42626,0.95912 0.40928,0.40514 0.72347,0.87436 0.94258,1.40766 0.21911,0.53227 0.32556,1.09348 0.3204,1.68465 l -0.031,3.65249 c -0.001,0.21239 -0.0754,0.39068 -0.22118,0.53537 -0.14624,0.14315 -0.32556,0.21394 -0.53743,0.21291 -0.21239,-0.001 -0.39068,-0.0749 -0.53537,-0.22118 -0.14366,-0.14727 -0.21446,-0.32711 -0.21291,-0.5395 l 0.031,-3.65249 c 0.004,-0.38964 -0.0682,-0.75861 -0.21704,-1.10587 -0.14779,-0.3483 -0.3545,-0.65216 -0.62012,-0.91158 -0.56534,-0.56224 -1.24385,-0.8356 -2.03605,-0.82062 l -2.39572,-0.0206 -0.0558,6.49883 c -0.0124,0.20154 -0.0925,0.37156 -0.23978,0.51056 -0.14624,0.13798 -0.31987,0.20568 -0.52089,0.20464 -0.2124,-0.002 -0.39068,-0.0749 -0.53538,-0.22118 -0.14366,-0.14728 -0.21445,-0.32711 -0.2129,-0.5395 l 0.0558,-6.46576 c 0.003,-0.42426 0.15089,-0.78031 0.44441,-1.06866 0.29353,-0.28939 0.65216,-0.43202 1.07694,-0.42789 z m 4.30155,4.35942 c 0.005,-0.60203 -0.10439,-1.16375 -0.32866,-1.68465 -0.22479,-0.52193 -0.53123,-0.97772 -0.91984,-1.36632 -0.38757,-0.38861 -0.84233,-0.6935 -1.36426,-0.91571 -0.52245,-0.22169 -1.0852,-0.32969 -1.68879,-0.32453 l -2.39571,-0.0206 c -0.20154,-0.001 -0.38861,0.0367 -0.56224,0.11369 -0.17364,0.076 -0.32608,0.17777 -0.45682,0.30593 -0.12971,0.12712 -0.23462,0.27647 -0.3142,0.44855 -0.0785,0.1726 -0.11885,0.35915 -0.11989,0.56017 l -0.0558,6.46576 c -0.002,0.19017 0.0641,0.35036 0.19637,0.47955 0.13229,0.12971 0.29353,0.19534 0.48369,0.19637 0.19017,0.001 0.34985,-0.0558 0.47956,-0.17156 0.12919,-0.11576 0.20051,-0.26872 0.21291,-0.45889 l 0.0558,-6.58358 2.46393,0.0207 c 0.39119,-0.008 0.7674,0.062 1.12861,0.21084 0.36071,0.14883 0.68058,0.35864 0.95912,0.62839 0.58704,0.57464 0.87695,1.26917 0.87023,2.08359 l -0.031,3.65249 c -0.001,0.19017 0.061,0.35037 0.18811,0.47956 0.1266,0.12971 0.28525,0.19534 0.47542,0.19637 0.19017,0.002 0.35243,-0.061 0.48783,-0.1881 0.13487,-0.12661 0.20308,-0.28526 0.20463,-0.47543 z m 0,0"
     style="fill:#707070 icc-color(sRGB-IEC61966-2, 0.1, 0.43899536, 0.43899536, 0.43899536);fill-opacity:1;fill-rule:nonzero;stroke:none;stroke-width:0.176389"
     aria-label="n" />
  <path
     id="path147"
     d="m 0,0 c -2.407,0.021 -4.44,-0.786 -6.1,-2.417 -1.661,-1.634 -2.5,-3.652 -2.52,-6.058 l -0.312,-36.661 c -0.01,-1.203 0.392,-2.22 1.208,-3.05 0.815,-0.83 1.826,-1.25 3.029,-1.26 1.14,-0.01 2.124,0.377 2.955,1.162 0.829,0.784 1.281,1.746 1.354,2.886 l 0.313,36.85 13.582,-0.115 c 4.496,0.087 8.345,-1.465 11.548,-4.657 1.507,-1.471 2.68,-3.19 3.518,-5.159 0.838,-1.971 1.248,-4.064 1.229,-6.279 l -0.176,-20.705 c -0.01,-1.204 0.393,-2.221 1.209,-3.05 0.815,-0.831 1.825,-1.251 3.028,-1.261 1.202,-0.01 2.219,0.393 3.05,1.209 0.829,0.815 1.251,1.825 1.261,3.029 l 0.176,20.705 c 0.028,3.355 -0.579,6.542 -1.819,9.561 -1.242,3.018 -3.024,5.677 -5.346,7.976 -2.387,2.362 -5.079,4.175 -8.075,5.436 -2.998,1.26 -6.174,1.84 -9.53,1.743 z m 37.796,-45.533 c -0.009,-1.077 -0.397,-1.976 -1.163,-2.697 -0.766,-0.722 -1.688,-1.078 -2.764,-1.069 -1.077,0.009 -1.976,0.381 -2.697,1.115 -0.722,0.734 -1.078,1.639 -1.069,2.716 l 0.176,20.705 c 0.039,4.621 -1.606,8.563 -4.934,11.82 -1.571,1.533 -3.381,2.719 -5.431,3.56 -2.051,0.84 -4.185,1.238 -6.401,1.195 L -0.449,-8.07 -0.766,-45.395 c -0.073,-1.077 -0.477,-1.943 -1.209,-2.602 -0.735,-0.659 -1.64,-0.983 -2.716,-0.974 -1.078,0.009 -1.991,0.38 -2.745,1.116 -0.753,0.733 -1.126,1.639 -1.116,2.716 l 0.311,36.66 c 0.01,1.14 0.24,2.198 0.692,3.177 0.45,0.977 1.044,1.827 1.779,2.549 0.733,0.721 1.593,1.3 2.579,1.736 0.985,0.433 2.048,0.647 3.188,0.637 l 13.581,-0.115 c 3.42,0.033 6.611,-0.579 9.577,-1.838 2.966,-1.261 5.547,-2.992 7.745,-5.196 2.197,-2.203 3.932,-4.782 5.205,-7.738 1.273,-2.955 1.896,-6.142 1.867,-9.561 z"
     style="fill:none;stroke:#707070 icc-color(sRGB-IEC61966-2, 0.1, 0.43899536, 0.43899536, 0.43899536);stroke-width:1.263;stroke-linecap:butt;stroke-linejoin:miter;stroke-miterlimit:10;stroke-dasharray:none;stroke-opacity:1"
     transform="matrix(0.17638888,0,0,-0.17638888,106.04394,131.42676)"
     clip-path="url(#clipPath148)" />
  <path
     id="path149"
     d="m 125.27601,131.58954 c 0.59221,-0.0175 1.15238,0.0847 1.68051,0.30799 0.52917,0.22221 1.00459,0.54157 1.42627,0.95912 0.40928,0.40514 0.72347,0.87436 0.94258,1.40766 0.21911,0.53227 0.32556,1.09348 0.32039,1.68465 -0.001,0.21239 -0.076,0.39068 -0.22324,0.53537 -0.14624,0.14366 -0.32556,0.21446 -0.53743,0.21291 l -13.5537,-0.11575 c 0.0868,0.31419 0.22118,0.59841 0.40308,0.85162 0.18293,0.25218 0.39687,0.47129 0.64079,0.65733 0.24391,0.18603 0.51314,0.32814 0.80822,0.42581 0.2961,0.0982 0.60616,0.14831 0.93017,0.1509 l 7.10241,0.0599 c 0.42426,0.003 0.82682,-0.0806 1.20716,-0.25011 0.38137,-0.1695 0.71365,-0.41445 0.99632,-0.73588 0.15813,-0.16639 0.34934,-0.24908 0.57258,-0.24804 0.20102,0.002 0.36794,0.0641 0.50023,0.1881 0.15399,0.13642 0.23616,0.30799 0.24598,0.5147 0.009,0.20567 -0.0532,0.38602 -0.18811,0.54157 -0.42891,0.48937 -0.93224,0.86299 -1.51101,1.12034 -0.57775,0.25632 -1.19011,0.38137 -1.83762,0.3762 l -7.10241,-0.0599 c -0.60358,0.007 -1.16995,-0.10387 -1.69912,-0.3328 -0.52813,-0.22841 -0.99115,-0.54001 -1.38906,-0.93431 -0.39843,-0.39377 -0.71314,-0.85679 -0.94465,-1.38906 -0.23047,-0.5333 -0.34261,-1.10174 -0.33693,-1.70532 0.005,-0.59118 0.12196,-1.15032 0.34934,-1.67845 0.22737,-0.52917 0.555,-0.99271 0.98392,-1.39113 0.41599,-0.41031 0.89296,-0.72192 1.4304,-0.93431 0.53847,-0.21342 1.09864,-0.30644 1.68052,-0.27905 z m 3.60908,5.02502 c 0.21187,0.002 0.37465,-0.0646 0.48782,-0.19844 0.13643,-0.12092 0.20516,-0.27699 0.20671,-0.46716 0.005,-0.60203 -0.1049,-1.16375 -0.33073,-1.68465 -0.22479,-0.52193 -0.53072,-0.97772 -0.91777,-1.36632 -0.38758,-0.38861 -0.84285,-0.6935 -1.36633,-0.91571 -0.52245,-0.22324 -1.0852,-0.33124 -1.68878,-0.32453 l -7.10241,-0.0599 c -0.60358,-0.0165 -1.16944,0.0822 -1.69706,0.29559 -0.52658,0.21239 -0.98702,0.51004 -1.38079,0.89296 -0.39429,0.38189 -0.70487,0.83199 -0.93224,1.34979 -0.22738,0.51677 -0.34417,1.07642 -0.34934,1.67845 -0.004,0.57051 0.0997,1.11931 0.31213,1.64538 0.21342,0.52658 0.52555,0.99219 0.93638,1.39733 0.39687,0.40669 0.85989,0.7183 1.38906,0.93431 0.52916,0.21653 1.079,0.31626 1.64951,0.29972 l 7.10241,0.0599 c 0.63665,0.006 1.24075,-0.11782 1.81281,-0.37 0.57154,-0.25218 1.0666,-0.6165 1.48414,-1.09348 0.11266,-0.12247 0.17002,-0.2837 0.17157,-0.48369 -0.0206,-0.19017 -0.0982,-0.34726 -0.23151,-0.47129 -0.14469,-0.11265 -0.29507,-0.17001 -0.45062,-0.17156 -0.21239,-0.001 -0.38654,0.0754 -0.52296,0.22944 -0.28112,0.32143 -0.61805,0.56947 -1.01079,0.74414 -0.39275,0.17518 -0.80719,0.26148 -1.24231,0.25838 l -7.10241,-0.0599 c -0.66972,0.006 -1.26607,-0.18914 -1.788,-0.58498 -0.5209,-0.39532 -0.87385,-0.91209 -1.05833,-1.55029 l -0.033,-0.0992 z m -3.62149,-3.60082 c 0.33487,0.003 0.65216,0.0558 0.95292,0.15917 0.30179,0.10335 0.57981,0.24908 0.83509,0.43615 0.25631,0.18603 0.47439,0.41134 0.65525,0.67592 0.18191,0.26355 0.32143,0.55139 0.41962,0.86403 l 0.0186,0.10129 -12.90051,-0.10955 0.0331,-0.10129 c 0.10336,-0.31109 0.24805,-0.59738 0.43409,-0.85783 0.18706,-0.26045 0.40721,-0.48162 0.65939,-0.66352 0.25321,-0.18294 0.53123,-0.3235 0.83302,-0.42168 0.30283,-0.0992 0.62219,-0.14677 0.95705,-0.14263 z m 2.7802,2.16835 c -0.0868,-0.31265 -0.2186,-0.5979 -0.39481,-0.85577 -0.17674,-0.25889 -0.38964,-0.47852 -0.63872,-0.65939 -0.2496,-0.1819 -0.52245,-0.32349 -0.81856,-0.42581 -0.29507,-0.10335 -0.60461,-0.1509 -0.92811,-0.14263 l -7.10241,-0.0599 c -0.32401,-0.0135 -0.63458,0.0284 -0.93224,0.12609 -0.29662,0.0982 -0.56844,0.23512 -0.81649,0.41134 -0.24701,0.17673 -0.46405,0.39274 -0.65112,0.64906 -0.18603,0.25528 -0.32556,0.53846 -0.41754,0.84956 z m 0,0"
     style="fill:#707070 icc-color(sRGB-IEC61966-2, 0.1, 0.43899536, 0.43899536, 0.43899536);fill-opacity:1;fill-rule:nonzero;stroke:none;stroke-width:0.176389"
     aria-label="e" />
  <path
     id="path150"
     d="m 0,0 c -3.292,0.154 -6.462,-0.372 -9.512,-1.582 -3.05,-1.208 -5.757,-2.975 -8.119,-5.297 -2.426,-2.259 -4.285,-4.887 -5.576,-7.883 -1.292,-2.998 -1.952,-6.174 -1.98,-9.529 -0.029,-3.419 0.608,-6.64 1.913,-9.657 1.303,-3.02 3.086,-5.646 5.346,-7.882 2.261,-2.236 4.889,-4 7.886,-5.291 2.996,-1.293 6.205,-1.921 9.625,-1.886 l 40.27,-0.343 c 3.671,-0.031 7.144,0.683 10.418,2.144 3.273,1.459 6.125,3.572 8.555,6.339 0.767,0.879 1.123,1.905 1.071,3.077 -0.054,1.171 -0.521,2.142 -1.4,2.909 -0.753,0.703 -1.7,1.059 -2.84,1.069 -1.267,0.011 -2.347,-0.455 -3.241,-1.397 -1.6,-1.824 -3.48,-3.216 -5.64,-4.179 -2.162,-0.964 -4.445,-1.434 -6.851,-1.414 l -40.269,0.343 c -1.838,0.015 -3.592,0.299 -5.265,0.852 -1.673,0.551 -3.203,1.357 -4.585,2.413 -1.385,1.056 -2.593,2.302 -3.626,3.736 -1.033,1.433 -1.795,3.038 -2.286,4.815 l 76.835,-0.652 c 1.203,-0.011 2.219,0.392 3.05,1.208 0.829,0.815 1.25,1.825 1.261,3.029 0.028,3.355 -0.579,6.542 -1.819,9.561 -1.242,3.018 -3.024,5.677 -5.346,7.976 -2.387,2.362 -5.079,4.176 -8.075,5.436 -2.998,1.26 -6.174,1.841 -9.53,1.743 z m -16.672,-28.163 0.185,-0.571 c 1.046,-3.619 3.047,-6.549 6.005,-8.789 2.956,-2.243 6.335,-3.348 10.135,-3.316 l 40.269,-0.343 c 2.47,-0.021 4.815,0.465 7.041,1.46 2.225,0.993 4.136,2.402 5.735,4.226 0.767,0.879 1.752,1.314 2.956,1.304 0.886,-0.007 1.738,-0.332 2.555,-0.971 0.754,-0.705 1.189,-1.594 1.308,-2.671 -0.01,-1.14 -0.335,-2.055 -0.974,-2.746 -2.366,-2.703 -5.169,-4.769 -8.41,-6.198 -3.242,-1.43 -6.667,-2.128 -10.276,-2.097 l -40.27,0.342 c -3.231,-0.1 -6.345,0.466 -9.341,1.695 -2.998,1.227 -5.626,2.992 -7.886,5.291 -2.324,2.299 -4.09,4.941 -5.299,7.928 -1.209,2.986 -1.801,6.095 -1.773,9.324 0.028,3.419 0.688,6.595 1.98,9.529 1.291,2.933 3.053,5.482 5.289,7.648 2.235,2.166 4.845,3.853 7.832,5.063 2.986,1.209 6.189,1.767 9.608,1.675 l 40.269,-0.342 c 3.42,0.034 6.611,-0.579 9.577,-1.839 2.966,-1.26 5.547,-2.991 7.745,-5.195 2.197,-2.203 3.932,-4.782 5.205,-7.737 1.273,-2.956 1.895,-6.143 1.867,-9.562 -0.01,-1.077 -0.397,-1.96 -1.162,-2.65 -0.641,-0.754 -1.562,-1.126 -2.765,-1.116 z m 16.603,20.09 c -1.9,0.016 -3.706,-0.253 -5.421,-0.809 -1.715,-0.555 -3.288,-1.349 -4.721,-2.381 -1.434,-1.033 -2.68,-2.29 -3.737,-3.768 -1.057,-1.48 -1.878,-3.104 -2.464,-4.871 l -0.194,-0.568 73.131,-0.622 -0.09,0.571 c -0.555,1.777 -1.349,3.415 -2.38,4.912 -1.033,1.496 -2.273,2.774 -3.72,3.831 -1.448,1.057 -3.023,1.878 -4.728,2.462 -1.705,0.585 -3.507,0.884 -5.406,0.9 z m -15.965,-12.022 c 0.522,1.767 1.311,3.376 2.369,4.824 1.057,1.447 2.286,2.671 3.688,3.673 1.4,1.001 2.943,1.78 4.626,2.335 1.682,0.556 3.441,0.793 5.278,0.715 l 40.27,-0.342 c 1.836,0.046 3.591,-0.22 5.264,-0.805 1.672,-0.584 3.218,-1.389 4.634,-2.413 1.416,-1.026 2.624,-2.271 3.625,-3.735 1,-1.467 1.746,-3.088 2.238,-4.864 z"
     style="fill:none;stroke:#707070 icc-color(sRGB-IEC61966-2, 0.1, 0.43899536, 0.43899536, 0.43899536);stroke-width:1.263;stroke-linecap:butt;stroke-linejoin:miter;stroke-miterlimit:10;stroke-dasharray:none;stroke-opacity:1"
     transform="matrix(0.17638888,0,0,-0.17638888,118.17274,131.52986)"
     clip-path="url(#clipPath151)" />
  <path
     id="path152"
     d="m 133.82588,138.79995 c 0.20102,0.001 0.3762,0.076 0.52503,0.22325 0.14986,0.14624 0.22376,0.32556 0.22118,0.53743 -0.001,0.21239 -0.0786,0.39016 -0.23151,0.5333 -0.15193,0.14366 -0.32815,0.21446 -0.52917,0.21291 l -0.46716,-0.004 c -0.38033,-0.002 -0.74,-0.0775 -1.079,-0.22531 -0.339,-0.14728 -0.63355,-0.34779 -0.88263,-0.60152 -0.2496,-0.25476 -0.44597,-0.55242 -0.58911,-0.89297 -0.14211,-0.34158 -0.21084,-0.7028 -0.20671,-1.08313 l 0.0765,-8.9793 c 0.001,-0.21187 0.0749,-0.39068 0.22118,-0.53537 0.14727,-0.14469 0.32711,-0.21549 0.5395,-0.21291 0.21187,0.002 0.38964,0.076 0.5333,0.22325 0.14469,0.14624 0.21601,0.32556 0.21497,0.53743 l -0.0269,3.03237 1.84175,0.0145 c 0.21188,0.003 0.38964,0.078 0.5333,0.22531 0.1447,0.14625 0.21601,0.32453 0.21498,0.53537 -0.001,0.21239 -0.076,0.39067 -0.22325,0.53537 -0.14624,0.14366 -0.32556,0.21394 -0.53743,0.21084 l -1.84175,-0.0145 -0.0372,4.44004 c -0.003,0.35708 0.11679,0.65939 0.35967,0.90744 0.24391,0.24804 0.53847,0.37362 0.8847,0.3762 z m -0.0124,1.42421 c 0.19017,0.002 0.34985,-0.061 0.47956,-0.18811 0.12919,-0.1266 0.19482,-0.28525 0.19637,-0.47542 0.002,-0.19017 -0.0599,-0.35243 -0.18811,-0.48782 -0.12815,-0.13643 -0.28732,-0.20516 -0.47749,-0.20671 l -0.48575,-0.004 c -0.36794,-0.002 -0.67955,-0.13539 -0.93431,-0.39894 -0.25374,-0.26458 -0.37931,-0.58136 -0.37621,-0.95085 l 0.0372,-4.52272 1.90997,0.0145 c 0.19016,0.003 0.35243,-0.0599 0.48782,-0.1881 0.13488,-0.12816 0.20309,-0.28732 0.20464,-0.47749 0.001,-0.18862 -0.0641,-0.35037 -0.19637,-0.48576 -0.13229,-0.13488 -0.29352,-0.20361 -0.48369,-0.20671 l -1.90996,-0.0144 0.0269,-3.09851 c 10e-4,-0.19017 -0.0641,-0.35244 -0.19637,-0.48783 -0.13229,-0.13643 -0.29352,-0.20515 -0.48369,-0.20671 -0.19017,-10e-4 -0.35037,0.0651 -0.47956,0.19844 -0.12971,0.13229 -0.19534,0.29352 -0.19637,0.48369 l -0.0765,8.9793 c -0.003,0.36949 0.0631,0.71934 0.19844,1.05007 0.13642,0.33073 0.32659,0.62011 0.5705,0.86816 0.24392,0.24701 0.52969,0.44183 0.85783,0.58498 0.32918,0.14211 0.67851,0.21445 1.048,0.21704 z m 0,0"
     style="fill:#707070 icc-color(sRGB-IEC61966-2, 0.1, 0.43899536, 0.43899536, 0.43899536);fill-opacity:1;fill-rule:nonzero;stroke:none;stroke-width:0.176389"
     aria-label="t" />
  <path
     id="path153"
     d="M 0,0 C -1.963,0.017 -3.635,0.728 -5.015,2.132 -6.397,3.536 -7.078,5.251 -7.061,7.278 L -6.847,32.447 3.6,32.358 c 1.202,-0.01 2.219,0.392 3.05,1.209 0.829,0.815 1.25,1.826 1.26,3.029 0.01,1.202 -0.393,2.219 -1.209,3.05 -0.816,0.829 -1.826,1.25 -3.028,1.26 l -10.447,0.089 0.146,17.191 c 0.01,1.201 -0.394,2.218 -1.209,3.049 -0.817,0.829 -1.828,1.251 -3.03,1.261 -1.203,0.01 -2.22,-0.394 -3.049,-1.209 -0.83,-0.817 -1.25,-1.827 -1.26,-3.029 L -15.609,7.351 c -0.018,-2.153 0.376,-4.198 1.182,-6.136 0.806,-1.939 1.916,-3.626 3.329,-5.062 1.413,-1.437 3.08,-2.576 5.006,-3.415 1.924,-0.84 3.962,-1.268 6.114,-1.286 l 2.66,-0.023 c 1.14,-0.01 2.141,0.392 3.003,1.209 0.861,0.815 1.297,1.825 1.308,3.029 0.01,1.202 -0.41,2.219 -1.257,3.049 -0.848,0.83 -1.841,1.251 -2.982,1.261 z m 0.027,-8.074 c -2.089,0.018 -4.066,0.429 -5.926,1.238 -1.862,0.807 -3.483,1.913 -4.864,3.318 -1.381,1.404 -2.46,3.044 -3.235,4.919 -0.776,1.874 -1.154,3.857 -1.136,5.946 l 0.433,50.907 c 0.009,1.076 0.38,1.991 1.115,2.746 0.733,0.753 1.639,1.125 2.716,1.116 1.077,-0.009 1.992,-0.397 2.745,-1.163 0.754,-0.767 1.126,-1.688 1.117,-2.764 L -7.158,40.619 3.669,40.526 C 4.745,40.518 5.661,40.13 6.414,39.363 7.167,38.597 7.54,37.675 7.53,36.599 7.521,35.522 7.134,34.623 6.368,33.902 5.602,33.18 4.68,32.824 3.604,32.833 L -7.223,32.925 -7.441,7.282 c -0.018,-2.09 0.694,-3.886 2.139,-5.385 1.443,-1.501 3.21,-2.259 5.299,-2.277 L 2.751,-0.403 C 3.828,-0.413 4.727,-0.8 5.449,-1.566 6.169,-2.332 6.527,-3.254 6.518,-4.33 6.508,-5.407 6.135,-6.307 5.402,-7.027 4.667,-7.75 3.762,-8.106 2.686,-8.097 Z"
     style="fill:none;stroke:#707070 icc-color(sRGB-IEC61966-2, 0.1, 0.43899536, 0.43899536, 0.43899536);stroke-width:1.263;stroke-linecap:butt;stroke-linejoin:miter;stroke-miterlimit:10;stroke-dasharray:none;stroke-opacity:1"
     transform="matrix(0.17638888,0,0,-0.17638888,133.34003,138.79591)"
     clip-path="url(#clipPath154)" />
  <path
     id="path155"
     d="m 136.66653,127.81665 c 0.31264,0.003 0.5767,0.11368 0.79168,0.33279 0.21601,0.21911 0.32298,0.49093 0.32039,0.81442 -0.003,0.31316 -0.11369,0.57774 -0.33279,0.79375 -0.21911,0.21653 -0.48525,0.3235 -0.79789,0.3204 -0.32401,-0.003 -0.59428,-0.11369 -0.81028,-0.3328 -0.21653,-0.22014 -0.3235,-0.48679 -0.3204,-0.79995 0.003,-0.3235 0.11369,-0.59325 0.3328,-0.80822 0.22014,-0.21601 0.49247,-0.32298 0.81649,-0.32039 z m -0.0186,2.19521 c 0.29042,0.003 0.54002,-0.0982 0.74827,-0.30386 0.20774,-0.20515 0.31316,-0.4532 0.31626,-0.74414 0.002,-0.29042 -0.0987,-0.5426 -0.30386,-0.75654 -0.20412,-0.21342 -0.45165,-0.32143 -0.74207,-0.32453 -0.28939,-0.002 -0.53899,0.10129 -0.74827,0.31213 -0.20826,0.2098 -0.31368,0.45992 -0.31626,0.75034 -0.003,0.29094 0.0982,0.54105 0.30385,0.75034 0.20516,0.20826 0.45269,0.31368 0.74208,0.31626 z m -0.0145,1.5751 c 0.21187,0.001 0.38964,0.0785 0.5333,0.23151 0.14469,0.15193 0.21601,0.33279 0.21497,0.54363 l -0.062,7.30498 c -0.001,0.2124 -0.076,0.39068 -0.22324,0.53537 -0.14624,0.14366 -0.32556,0.21394 -0.53743,0.21291 -0.21239,-0.003 -0.39016,-0.077 -0.5333,-0.22324 -0.14366,-0.14573 -0.21446,-0.32505 -0.21291,-0.53744 l 0.062,-7.30498 c 10e-4,-0.21084 0.0749,-0.39119 0.22118,-0.54157 0.14572,-0.14986 0.32504,-0.22376 0.53743,-0.22117 z m 0.66352,0.77514 c 0.001,-0.18861 -0.0615,-0.35036 -0.1881,-0.48575 -0.12712,-0.13643 -0.28525,-0.20516 -0.47542,-0.20671 -0.18914,-10e-4 -0.3514,0.0651 -0.48783,0.19844 -0.13539,0.13229 -0.2036,0.293 -0.20464,0.48162 l -0.062,7.30498 c -0.001,0.19017 0.0641,0.35037 0.19637,0.47956 0.13333,0.12971 0.29456,0.19534 0.48369,0.19637 0.19017,0.001 0.34985,-0.061 0.47956,-0.1881 0.12919,-0.12661 0.19482,-0.28526 0.19637,-0.47543 z m 8.46564,5.35058 c 0.1788,0.001 0.34106,0.0641 0.48575,0.1881 0.15555,0.12403 0.24392,0.29249 0.26459,0.50437 0.0191,0.21239 -0.0445,0.39584 -0.19017,0.54983 -0.42892,0.50023 -0.93431,0.87954 -1.51722,1.13689 -0.58291,0.25786 -1.19838,0.38343 -1.84588,0.37827 -0.60359,-0.006 -1.17306,-0.12454 -1.70739,-0.3576 -0.5333,-0.2341 -0.99943,-0.55398 -1.39733,-0.95912 -0.39843,-0.40618 -0.71056,-0.8785 -0.93638,-1.41593 -0.22479,-0.53847 -0.33435,-1.11001 -0.32866,-1.71359 0.005,-0.61289 0.12505,-1.18649 0.35966,-1.7198 0.2341,-0.53433 0.55294,-0.99838 0.95705,-1.39112 0.40515,-0.39378 0.87643,-0.7028 1.41387,-0.92605 0.53847,-0.22427 1.11001,-0.33383 1.71359,-0.32866 0.64751,-0.005 1.2609,0.12816 1.83968,0.40101 0.57878,0.27285 1.07797,0.65629 1.49862,1.14928 0.14314,0.15865 0.20309,0.34417 0.17983,0.55604 -0.0237,0.19017 -0.10904,0.3545 -0.25631,0.49196 -0.14625,0.13798 -0.3142,0.20619 -0.50437,0.20464 -0.23461,-0.001 -0.42323,-0.0915 -0.56637,-0.27078 -0.27699,-0.32763 -0.60771,-0.57981 -0.99219,-0.75655 -0.38344,-0.17621 -0.78703,-0.26561 -1.21129,-0.26871 -0.40256,-0.004 -0.78083,0.0682 -1.13482,0.21704 -0.35295,0.14779 -0.66146,0.3514 -0.92604,0.61185 -0.26458,0.26045 -0.47335,0.56637 -0.62632,0.91777 -0.15296,0.35037 -0.23151,0.72554 -0.23564,1.12655 -0.003,0.40256 0.0687,0.78083 0.21497,1.13481 0.14728,0.35295 0.3514,0.66146 0.61185,0.92604 0.26045,0.26459 0.56534,0.47439 0.91571,0.62839 0.3514,0.15296 0.72812,0.23151 1.13068,0.23564 0.42426,0.003 0.8294,-0.0832 1.21543,-0.25838 0.38705,-0.17622 0.72192,-0.42478 1.00459,-0.74621 0.13487,-0.1664 0.32504,-0.24856 0.57051,-0.24598 z m 0.51263,1.19269 c 0.12247,-0.13229 0.17363,-0.29352 0.15296,-0.48369 -0.0207,-0.1788 -0.0925,-0.33073 -0.21498,-0.45475 -0.12144,-0.12402 -0.27181,-0.18655 -0.45061,-0.1881 -0.21239,-0.001 -0.38603,0.0754 -0.5209,0.22944 -0.29353,0.33383 -0.63666,0.58808 -1.0294,0.76275 -0.3917,0.17518 -0.80512,0.26148 -1.24023,0.25838 -0.41341,-0.004 -0.79892,-0.0853 -1.15549,-0.24392 -0.35553,-0.15968 -0.66662,-0.37465 -0.93224,-0.64492 -0.26613,-0.2713 -0.47542,-0.58601 -0.62839,-0.94464 -0.15296,-0.35967 -0.22841,-0.74621 -0.2253,-1.15962 0.004,-0.41186 0.0853,-0.7984 0.24391,-1.15962 0.15968,-0.36225 0.37465,-0.67593 0.64492,-0.94051 0.26975,-0.26562 0.58394,-0.47542 0.94258,-0.62839 0.35967,-0.15399 0.74621,-0.22944 1.15962,-0.22531 0.43511,0.003 0.84749,0.0982 1.2361,0.28526 0.38964,0.18758 0.72864,0.44442 1.01699,0.77101 0.13229,0.15865 0.30437,0.23875 0.51676,0.23978 0.19017,0.002 0.34417,-0.0527 0.46303,-0.1633 0.11833,-0.11007 0.18913,-0.26045 0.2129,-0.45062 0.0248,-0.20102 -0.0238,-0.36897 -0.14469,-0.50436 -0.42065,-0.48369 -0.91467,-0.85886 -1.48208,-1.12655 -0.56793,-0.26871 -1.16996,-0.40514 -1.80661,-0.40927 -0.60358,-0.005 -1.16944,0.10438 -1.69705,0.32866 -0.52659,0.22324 -0.98702,0.52917 -1.3808,0.91777 -0.39429,0.38861 -0.70487,0.84491 -0.93224,1.36839 -0.22738,0.52245 -0.34417,1.08469 -0.34933,1.68672 -0.006,0.60358 0.10128,1.16944 0.32039,1.69706 0.21911,0.52658 0.52193,0.98702 0.90951,1.38079 0.38705,0.39274 0.8418,0.70383 1.36425,0.93224 0.52349,0.22738 1.08727,0.34417 1.69086,0.34934 0.63665,0.004 1.24075,-0.11886 1.81281,-0.37001 0.57309,-0.25063 1.07383,-0.62063 1.50275,-1.11001 z m 6.37532,-3.32847 c 0.30179,0.0454 0.58291,0.14004 0.84336,0.28318 0.26148,0.14211 0.48627,0.32246 0.67386,0.54157 0.18862,0.21911 0.33486,0.46612 0.43821,0.74001 0.10336,0.2744 0.154,0.56224 0.15297,0.86403 -0.004,0.34623 -0.0718,0.66972 -0.20258,0.97151 -0.1297,0.30076 -0.30747,0.56173 -0.5333,0.78342 -0.22479,0.22066 -0.48886,0.39377 -0.79168,0.51883 -0.30334,0.12557 -0.62787,0.18707 -0.97358,0.18397 l -3.98736,-0.0331 c -0.21239,-0.002 -0.39067,-0.0765 -0.53536,-0.22118 -0.14367,-0.14573 -0.21446,-0.32504 -0.21291,-0.53743 0.002,-0.21188 0.077,-0.39068 0.22324,-0.53537 0.14728,-0.1447 0.32711,-0.21549 0.5395,-0.21291 l 3.98736,0.0331 c 0.26716,0.003 0.49661,-0.0899 0.68833,-0.27905 0.1912,-0.18862 0.28835,-0.41651 0.29145,-0.6842 10e-4,-0.22324 -0.076,-0.42478 -0.23151,-0.60564 -0.15451,-0.18035 -0.34313,-0.28216 -0.56637,-0.30593 l -3.06131,-0.41134 c -0.3018,-0.0357 -0.58395,-0.12713 -0.84543,-0.27492 -0.26045,-0.14728 -0.48524,-0.32763 -0.67386,-0.54157 -0.18914,-0.21342 -0.33487,-0.45992 -0.43822,-0.74001 -0.10335,-0.27957 -0.15399,-0.5705 -0.15089,-0.87229 0.002,-0.33487 0.0692,-0.65216 0.2005,-0.95292 0.13229,-0.30179 0.31058,-0.56275 0.53537,-0.78341 0.22427,-0.22169 0.48834,-0.39533 0.79168,-0.5209 0.30283,-0.12661 0.62735,-0.18862 0.97359,-0.18604 l 3.71863,0.031 c 0.20102,0.001 0.37621,0.076 0.52504,0.22325 0.14986,0.14624 0.22427,0.32556 0.22324,0.53743 -0.003,0.21239 -0.0801,0.39067 -0.23151,0.53537 -0.15193,0.14366 -0.32815,0.21446 -0.52917,0.21291 l -3.71864,-0.031 c -0.26871,-0.002 -0.49919,0.0879 -0.69039,0.27078 -0.19172,0.1819 -0.28836,0.40721 -0.28939,0.67593 -0.003,0.23461 0.0729,0.43925 0.22737,0.61391 0.15555,0.17364 0.3452,0.27234 0.56845,0.29559 z m 1.32498,4.13204 c 0.22428,-0.22014 0.39946,-0.478 0.52503,-0.77308 0.12506,-0.2961 0.18914,-0.60616 0.19224,-0.93017 0.001,-0.29042 -0.0496,-0.57051 -0.15296,-0.83923 -0.10336,-0.26872 -0.24702,-0.50694 -0.42995,-0.7152 -0.18345,-0.20774 -0.39998,-0.38292 -0.64906,-0.52503 -0.24959,-0.1416 -0.51986,-0.23048 -0.81028,-0.26665 l -3.06131,-0.41135 c -0.25787,-0.0357 -0.46716,-0.14676 -0.62839,-0.33279 -0.1602,-0.18604 -0.23874,-0.40721 -0.23564,-0.66353 0.002,-0.29042 0.10542,-0.53537 0.30799,-0.7338 0.20257,-0.19947 0.44907,-0.29818 0.74,-0.29559 l 3.71864,0.031 c 0.19017,0.002 0.34985,-0.061 0.47956,-0.18811 0.12919,-0.1266 0.19482,-0.28525 0.19637,-0.47542 0.001,-0.19017 -0.0615,-0.35243 -0.1881,-0.48783 -0.12713,-0.13487 -0.28526,-0.20308 -0.47543,-0.20463 l -3.71863,-0.031 c -0.33487,-0.002 -0.64854,0.0558 -0.94051,0.1757 -0.29249,0.11989 -0.54881,0.28835 -0.76895,0.50436 -0.21911,0.21497 -0.39429,0.46819 -0.52503,0.75861 -0.12971,0.28939 -0.19586,0.60151 -0.19844,0.93638 0.005,0.60254 0.19895,1.12344 0.58084,1.56269 0.38137,0.43977 0.86817,0.70022 1.45935,0.78135 l 3.06337,0.42995 c 0.25477,0.0238 0.46199,0.13126 0.62219,0.32246 0.16123,0.19172 0.24081,0.41031 0.23978,0.65526 -0.003,0.30179 -0.10542,0.54725 -0.30799,0.73587 -0.19172,0.21084 -0.43822,0.31522 -0.74001,0.31212 l -3.98735,-0.0331 c -0.19017,-0.001 -0.35295,0.0615 -0.48783,0.1881 -0.13384,0.12713 -0.20205,0.28526 -0.20464,0.47543 -0.001,0.19017 0.0641,0.35295 0.19637,0.48782 0.13333,0.13539 0.29559,0.20361 0.48576,0.20464 l 3.98735,0.0331 c 0.3235,0.003 0.63356,-0.0558 0.93018,-0.1757 0.2961,-0.11989 0.5581,-0.29042 0.78548,-0.51263 z m 0,0"
     style="fill:#707070 icc-color(sRGB-IEC61966-2, 0.1, 0.43899536, 0.43899536, 0.43899536);fill-opacity:1;fill-rule:nonzero;stroke:none;stroke-width:0.176389"
     aria-label="ics " />
  <path
     id="path156"
     d="m 0,0 c -1.245,-1.224 -1.875,-2.755 -1.891,-4.59 -0.015,-1.773 0.589,-3.282 1.814,-4.528 1.223,-1.245 2.753,-1.875 4.59,-1.891 1.772,-0.015 3.282,0.59 4.528,1.814 1.245,1.224 1.875,2.722 1.89,4.496 0.015,1.835 -0.589,3.376 -1.813,4.622 C 7.894,1.167 6.394,1.798 4.622,1.813 2.785,1.829 1.245,1.224 0,0 Z m 0.305,-8.835 c -1.162,1.18 -1.735,2.593 -1.721,4.241 0.014,1.645 0.611,3.065 1.793,4.259 C 1.558,0.856 2.972,1.447 4.619,1.433 6.265,1.419 7.668,0.805 8.83,-0.408 9.991,-1.621 10.565,-3.051 10.551,-4.696 10.537,-6.343 9.939,-7.747 8.758,-8.908 7.576,-10.07 6.162,-10.643 4.517,-10.629 2.869,-10.615 1.466,-10.018 0.305,-8.835 Z M 1.39,-20.813 c -0.831,-0.848 -1.251,-1.874 -1.261,-3.076 l -0.352,-41.41 c -0.01,-1.203 0.392,-2.22 1.209,-3.049 0.815,-0.831 1.826,-1.251 3.029,-1.261 1.202,-0.01 2.219,0.392 3.05,1.209 0.829,0.816 1.25,1.825 1.261,3.029 l 0.351,41.41 c 0.011,1.202 -0.393,2.235 -1.208,3.096 -0.817,0.862 -1.826,1.298 -3.029,1.308 -1.203,0.011 -2.22,-0.408 -3.05,-1.256 z m 6.461,-44.554 c -0.01,-1.077 -0.382,-1.977 -1.116,-2.697 -0.735,-0.723 -1.64,-1.079 -2.716,-1.07 -1.078,0.009 -1.991,0.381 -2.745,1.116 -0.753,0.733 -1.126,1.639 -1.117,2.716 l 0.352,41.41 c 0.009,1.076 0.397,1.991 1.163,2.745 0.767,0.753 1.687,1.125 2.765,1.116 1.075,-0.01 1.975,-0.397 2.696,-1.163 0.721,-0.766 1.078,-1.688 1.069,-2.764 z"
     style="fill:none;stroke:#707070 icc-color(sRGB-IEC61966-2, 0.1, 0.43899536, 0.43899536, 0.43899536);stroke-width:1.263;stroke-linecap:butt;stroke-linejoin:miter;stroke-miterlimit:10;stroke-dasharray:none;stroke-opacity:1"
     transform="matrix(0.17638888,0,0,-0.17638888,135.85151,128.1367)"
     clip-path="url(#clipPath157)" />
  <path
     id="path158"
     d="m 0,0 c -1.599,-1.824 -3.494,-3.231 -5.687,-4.225 -2.193,-0.995 -4.493,-1.482 -6.899,-1.462 -2.279,0.02 -4.413,0.465 -6.4,1.337 -1.987,0.872 -3.719,2.058 -5.194,3.558 -1.476,1.5 -2.632,3.252 -3.469,5.254 -0.838,2.002 -1.247,4.143 -1.228,6.422 0.02,2.279 0.465,4.412 1.337,6.4 0.871,1.987 2.057,3.718 3.558,5.194 1.5,1.474 3.252,2.632 5.254,3.469 2.002,0.838 4.142,1.247 6.421,1.227 2.406,-0.02 4.697,-0.53 6.873,-1.53 2.177,-1 4.048,-2.425 5.616,-4.274 0.813,-1.02 1.886,-1.536 3.216,-1.547 1.076,-0.01 2.029,0.378 2.859,1.163 0.829,0.784 1.312,1.713 1.449,2.79 0.136,1.2 -0.204,2.247 -1.019,3.142 -2.383,2.807 -5.214,4.984 -8.492,6.532 -3.28,1.547 -6.757,2.304 -10.429,2.273 -3.419,0.029 -6.654,-0.594 -9.704,-1.865 -3.05,-1.273 -5.725,-3.024 -8.023,-5.251 -2.299,-2.229 -4.111,-4.856 -5.434,-7.885 -1.324,-3.028 -2,-6.284 -2.03,-9.765 -0.029,-3.42 0.592,-6.654 1.864,-9.705 1.272,-3.049 3.039,-5.724 5.299,-8.023 2.261,-2.299 4.905,-4.111 7.932,-5.434 3.029,-1.325 6.252,-2.001 9.671,-2.03 3.672,-0.031 7.161,0.683 10.467,2.144 3.304,1.459 6.171,3.604 8.603,6.433 0.83,0.879 1.187,1.921 1.071,3.126 C 7.365,-1.33 6.867,-0.375 5.987,0.329 5.169,1.032 4.253,1.389 3.242,1.397 1.848,1.409 0.768,0.943 0,0 Z m -2.378,-11.663 c -3.242,-1.429 -6.668,-2.127 -10.277,-2.097 -3.419,0.03 -6.612,0.689 -9.576,1.981 -2.966,1.291 -5.546,3.054 -7.744,5.29 -2.198,2.235 -3.917,4.845 -5.157,7.833 -1.242,2.986 -1.847,6.189 -1.818,9.609 0.029,3.419 0.688,6.609 1.981,9.576 1.291,2.965 3.054,5.545 5.29,7.743 2.235,2.197 4.845,3.932 7.833,5.205 2.986,1.273 6.19,1.895 9.609,1.866 3.609,-0.03 7.022,-0.805 10.238,-2.319 C 1.217,31.508 4.017,29.378 6.4,26.636 7.09,25.87 7.367,24.918 7.231,23.78 7.094,22.703 6.692,21.852 6.022,21.226 5.352,20.597 4.478,20.289 3.402,20.298 c -1.203,0.01 -2.181,0.46 -2.933,1.354 -1.631,1.85 -3.55,3.308 -5.757,4.37 -2.208,1.064 -4.545,1.606 -7.015,1.627 -2.343,0.02 -4.53,-0.405 -6.564,-1.273 -2.035,-0.871 -3.817,-2.057 -5.35,-3.564 -1.532,-1.506 -2.751,-3.286 -3.654,-5.335 -0.905,-2.052 -1.366,-4.248 -1.386,-6.59 -0.02,-2.343 0.404,-4.532 1.275,-6.565 0.868,-2.034 2.056,-3.816 3.563,-5.349 1.506,-1.532 3.268,-2.751 5.288,-3.654 2.018,-0.905 4.199,-1.366 6.542,-1.386 2.469,-0.021 4.815,0.466 7.041,1.461 2.224,0.993 4.168,2.434 5.831,4.319 C 1.05,0.592 2.035,1.028 3.238,1.018 4.25,1.009 5.102,0.653 5.794,-0.049 6.484,-0.752 6.888,-1.611 7.006,-2.624 7.124,-3.702 6.831,-4.617 6.128,-5.371 3.698,-8.137 0.863,-10.234 -2.378,-11.663 Z"
     style="fill:none;stroke:#707070 icc-color(sRGB-IEC61966-2, 0.1, 0.43899536, 0.43899536, 0.43899536);stroke-width:1.263;stroke-linecap:butt;stroke-linejoin:miter;stroke-miterlimit:10;stroke-dasharray:none;stroke-opacity:1"
     transform="matrix(0.17638888,0,0,-0.17638888,145.19211,137.95849)"
     clip-path="url(#clipPath159)" />
  <path
     id="path160"
     d="m 0,0 c -1.267,0.137 -2.337,0.699 -3.215,1.689 -0.879,0.989 -1.312,2.149 -1.3,3.478 0.013,1.52 0.56,2.798 1.647,3.833 1.085,1.036 2.388,1.547 3.908,1.534 l 21.084,-0.179 c 1.14,-0.01 2.14,0.393 3.002,1.209 0.862,0.815 1.298,1.825 1.308,3.029 0.01,1.202 -0.408,2.219 -1.256,3.05 -0.848,0.829 -1.842,1.25 -2.981,1.26 L 1.112,19.082 c -1.963,0.017 -3.802,-0.332 -5.518,-1.045 -1.716,-0.714 -3.213,-1.699 -4.49,-2.954 -1.278,-1.256 -2.287,-2.735 -3.029,-4.438 -0.743,-1.703 -1.122,-3.505 -1.138,-5.405 -0.015,-1.709 0.271,-3.359 0.86,-4.947 0.587,-1.587 1.414,-2.988 2.481,-4.2 1.066,-1.212 2.339,-2.237 3.821,-3.072 1.48,-0.836 3.076,-1.355 4.783,-1.56 l 17.362,-2.332 c 1.265,-0.138 2.336,-0.717 3.215,-1.737 0.877,-1.021 1.311,-2.164 1.3,-3.431 -0.012,-1.519 -0.562,-2.813 -1.647,-3.879 -1.087,-1.069 -2.388,-1.595 -3.908,-1.582 L -7.4,-21.308 c -1.204,0.01 -2.221,-0.394 -3.05,-1.209 -0.831,-0.816 -1.25,-1.826 -1.26,-3.028 -0.011,-1.204 0.392,-2.221 1.209,-3.051 0.815,-0.83 1.825,-1.25 3.028,-1.26 l 22.604,-0.192 c 1.962,-0.016 3.803,0.331 5.518,1.046 1.716,0.712 3.211,1.696 4.49,2.953 1.277,1.255 2.286,2.736 3.029,4.439 0.742,1.703 1.123,3.535 1.139,5.499 0.015,1.709 -0.273,3.341 -0.86,4.899 -0.59,1.556 -1.416,2.957 -2.482,4.2 -1.066,1.244 -2.34,2.267 -3.82,3.072 -1.482,0.804 -3.076,1.339 -4.784,1.608 z m 20.415,-28.668 c -1.685,-0.684 -3.445,-1.016 -5.281,-1 l -22.604,0.192 c -1.077,0.009 -1.99,0.397 -2.744,1.163 -0.754,0.767 -1.126,1.687 -1.117,2.764 0.01,1.076 0.397,1.975 1.163,2.697 0.767,0.721 1.687,1.079 2.764,1.069 L 15.2,-21.975 c 1.71,-0.014 3.107,0.575 4.194,1.769 1.149,1.066 1.731,2.455 1.746,4.164 0.011,1.392 -0.438,2.631 -1.346,3.716 -0.91,1.084 -2.092,1.695 -3.546,1.835 l -17.361,2.427 c -3.354,0.471 -6.11,1.952 -8.274,4.439 -2.163,2.489 -3.263,5.442 -3.296,8.862 0.016,1.9 0.394,3.669 1.137,5.309 0.741,1.64 1.736,3.072 2.981,4.297 1.245,1.224 2.693,2.176 4.346,2.86 1.652,0.682 3.428,1.015 5.328,0.999 l 21.084,-0.179 c 1.076,-0.009 1.975,-0.397 2.697,-1.163 0.721,-0.766 1.078,-1.687 1.069,-2.763 C 25.95,13.52 25.578,12.62 24.844,11.899 24.109,11.177 23.204,10.82 22.128,10.83 L 1.043,11.009 C -0.604,11.023 -2.001,10.465 -3.15,9.335 -4.3,8.206 -4.881,6.817 -4.895,5.171 -4.908,3.714 -4.46,2.46 -3.55,1.408 c 0.908,-1.053 2.09,-1.68 3.546,-1.883 l 17.361,-2.332 c 1.645,-0.204 3.177,-0.708 4.594,-1.511 1.419,-0.805 2.645,-1.796 3.68,-2.976 1.035,-1.181 1.845,-2.533 2.435,-4.058 0.587,-1.524 0.875,-3.11 0.861,-4.756 -0.015,-1.837 -0.379,-3.591 -1.089,-5.262 -0.712,-1.672 -1.705,-3.136 -2.982,-4.392 -1.278,-1.256 -2.758,-2.224 -4.441,-2.906 z"
     style="fill:none;stroke:#707070 icc-color(sRGB-IEC61966-2, 0.1, 0.43899536, 0.43899536, 0.43899536);stroke-width:1.263;stroke-linecap:butt;stroke-linejoin:miter;stroke-miterlimit:10;stroke-dasharray:none;stroke-opacity:1"
     transform="matrix(0.17638888,0,0,-0.17638888,149.58864,135.16444)"
     clip-path="url(#clipPath161)" />
  <path
     id="path162"
     d="M 0,0 C 0.66,0.864 1.482,1.457 2.464,1.775 3.445,2.093 4.427,2.248 5.406,2.24 7.471,2.222 9.099,1.609 10.288,0.403 c 1.51,-1.429 2.311,-3.15 2.405,-5.163 0.089,-2.016 -0.578,-3.778 -2.005,-5.288 l -29.486,-31.418 28.804,-29.628 c 1.401,-1.538 2.095,-3.283 2.078,-5.241 -0.016,-1.959 -0.795,-3.695 -2.329,-5.205 -1.318,-1.404 -3.013,-2.096 -5.079,-2.078 -2.068,0.017 -3.804,0.738 -5.204,2.165 l -33.822,34.732 c -1.405,1.426 -2.097,3.12 -2.08,5.079 0.017,1.957 0.684,3.638 2.002,5.042 z"
     style="fill:#9944f7 icc-color(sRGB-IEC61966-2, 0.1, 0.59999084, 0.26699829, 0.96899414);fill-opacity:1;fill-rule:nonzero;stroke:none"
     transform="matrix(0.17638888,0,0,-0.17638888,51.307307,126.22244)"
     clip-path="url(#clipPath163)" />
  <path
     id="path164"
     d="m 0,0 c -0.66,-0.864 -1.482,-1.457 -2.464,-1.775 -0.981,-0.318 -1.963,-0.473 -2.942,-0.465 -2.065,0.018 -3.693,0.631 -4.882,1.837 -1.51,1.429 -2.311,3.15 -2.405,5.163 -0.088,2.016 0.578,3.778 2.005,5.288 l 29.486,31.418 -28.804,29.628 c -1.401,1.538 -2.095,3.283 -2.078,5.241 0.016,1.959 0.795,3.695 2.329,5.205 1.318,1.404 3.013,2.096 5.079,2.078 2.068,-0.017 3.804,-0.738 5.204,-2.165 L 34.35,46.721 c 1.405,-1.426 2.097,-3.12 2.08,-5.079 -0.017,-1.957 -0.684,-3.638 -2.002,-5.042 z"
     style="fill:none;stroke:#707070 icc-color(sRGB-IEC61966-2, 0.1, 0.43899536, 0.43899536, 0.43899536);stroke-width:2.525;stroke-linecap:butt;stroke-linejoin:miter;stroke-miterlimit:10;stroke-dasharray:none;stroke-opacity:1"
     transform="matrix(0.17638888,0,0,-0.17638888,159.7174,141.48267)"
     clip-path="url(#clipPath165)" />
</svg>
