<svg id="Capa_1" data-name="Capa 1" xmlns="http://www.w3.org/2000/svg" viewBox="0 0 794 186"><defs><style>.cls-1{fill:#fff;}</style></defs><path class="cls-1" d="M168.21,80.86l.26-30.43a4.79,4.79,0,1,1,9.58.08l-.6,70.45a4.79,4.79,0,1,1-9.58-.08l.26-30.44-43.52-.37-.26,30.43a4.79,4.79,0,1,1-9.58-.08l.6-70.45a4.79,4.79,0,1,1,9.58.09l-.26,30.43Z"/><path class="cls-1" d="M232.94,119.54a16.81,16.81,0,0,1-8,1.85l-20.75-.18a17.34,17.34,0,0,1-6.85-1.44,17.53,17.53,0,0,1-9.34-9.5,17.37,17.37,0,0,1-1.32-6.87l.24-28.74a4.8,4.8,0,0,1,1.41-3.44,4.77,4.77,0,0,1,6.82,0,4.85,4.85,0,0,1,1.35,3.48l-.24,28.73a8,8,0,0,0,8,8.15l20.76.18a7.62,7.62,0,0,0,5.71-2.29,7.92,7.92,0,0,0,2.34-5.73l.24-28.73a4.8,4.8,0,0,1,1.41-3.45,4.55,4.55,0,0,1,3.42-1.41A4.9,4.9,0,0,1,243,75.14l-.47,55.44a19.91,19.91,0,0,1-1.72,8.13,21.1,21.1,0,0,1-11.16,11,20.32,20.32,0,0,1-8.15,1.58L194.36,151a4.54,4.54,0,0,1-3.39-1.46,4.68,4.68,0,0,1-1.36-3.36,4.81,4.81,0,0,1,1.42-3.45,4.54,4.54,0,0,1,3.41-1.41l27.14.23a11,11,0,0,0,8-3.18,11.87,11.87,0,0,0,2.47-3.54,10.6,10.6,0,0,0,1-4.36l.09-11Z"/><path class="cls-1" d="M251,98.38a27.66,27.66,0,0,1,8.36-19.78,29.48,29.48,0,0,1,9-5.93,26.84,26.84,0,0,1,10.87-2.15,27.18,27.18,0,0,1,10.95,2.33A28.76,28.76,0,0,1,299,78.94a28,28,0,0,1,5.89,8.94,28.42,28.42,0,0,1-.19,21.81,28.59,28.59,0,0,1-6,8.89,27.68,27.68,0,0,1-19.92,8,28.28,28.28,0,0,1-9.83-1.84,26.67,26.67,0,0,1-8.52-5.24l-.24,27.78a4.73,4.73,0,0,1-4.83,4.75,4.75,4.75,0,0,1-4.75-4.83ZM278.8,117a18.11,18.11,0,0,0,7.2-1.38,18.53,18.53,0,0,0,5.88-3.88,18.73,18.73,0,0,0,4-5.82A18.65,18.65,0,0,0,296,91.58a18.54,18.54,0,0,0-3.89-5.89,18.31,18.31,0,0,0-5.82-4,18.68,18.68,0,0,0-14.36-.13A18.39,18.39,0,0,0,262,91.29a18.15,18.15,0,0,0-1.49,7.17,17.87,17.87,0,0,0,1.37,7.2,18.55,18.55,0,0,0,3.89,5.88,18.34,18.34,0,0,0,5.82,4A18,18,0,0,0,278.8,117Z"/><path class="cls-1" d="M363.28,99a4.61,4.61,0,0,1,3.07,2,5.28,5.28,0,0,1,.71,3.63,27.59,27.59,0,0,1-3.59,9.07,28.21,28.21,0,0,1-6.23,7.13,28.51,28.51,0,0,1-8.24,4.61,27.19,27.19,0,0,1-9.59,1.62,28.3,28.3,0,0,1-13.86-3.74,28,28,0,0,1-13.81-21.08,27.81,27.81,0,0,1,5.65-20.28,27.85,27.85,0,0,1,36.19-7.19,27.87,27.87,0,0,1,10.35,10.46,4.41,4.41,0,0,1,.5,3.62,5,5,0,0,1-2.26,3L326.45,112a18.19,18.19,0,0,0,6,4.1,18.5,18.5,0,0,0,7,1.44,17.66,17.66,0,0,0,6.29-1.06,18.87,18.87,0,0,0,5.4-3,18.17,18.17,0,0,0,4.09-4.7,18.83,18.83,0,0,0,2.33-5.94,4.9,4.9,0,0,1,2-3.12A4.47,4.47,0,0,1,363.28,99ZM330.53,83.12A19.56,19.56,0,0,0,325.81,87a17.66,17.66,0,0,0-3.18,5,18.42,18.42,0,0,0-1.38,5.74,19,19,0,0,0,.48,6l30.91-17.51a17.83,17.83,0,0,0-6-4,18.86,18.86,0,0,0-7-1.39,19.26,19.26,0,0,0-4.69.55A16.06,16.06,0,0,0,330.53,83.12Z"/><path class="cls-1" d="M523.28,100a4.61,4.61,0,0,1,3.07,2,5.28,5.28,0,0,1,.71,3.63,27.59,27.59,0,0,1-3.59,9.07,28.21,28.21,0,0,1-6.23,7.13,28.51,28.51,0,0,1-8.24,4.61,27.19,27.19,0,0,1-9.59,1.62,28.3,28.3,0,0,1-13.86-3.74,28,28,0,0,1-13.81-21.08,27.81,27.81,0,0,1,5.65-20.28,27.85,27.85,0,0,1,36.19-7.19,27.87,27.87,0,0,1,10.35,10.46,4.41,4.41,0,0,1,.5,3.62,5,5,0,0,1-2.26,3L486.45,113a18.19,18.19,0,0,0,6,4.1,18.5,18.5,0,0,0,7,1.44,17.66,17.66,0,0,0,6.29-1.06,18.87,18.87,0,0,0,5.4-3,18.17,18.17,0,0,0,4.09-4.7,18.83,18.83,0,0,0,2.33-5.94,4.9,4.9,0,0,1,2-3.12A4.47,4.47,0,0,1,523.28,100ZM490.53,84.12A19.56,19.56,0,0,0,485.81,88a17.66,17.66,0,0,0-3.18,5,18.42,18.42,0,0,0-1.38,5.74,19,19,0,0,0,.48,6l30.91-17.51a17.83,17.83,0,0,0-6-4,18.86,18.86,0,0,0-7-1.39,19.26,19.26,0,0,0-4.69.55A16.06,16.06,0,0,0,490.53,84.12Z"/><path class="cls-1" d="M399.87,72.19a4.79,4.79,0,1,1-.09,9.58l-8.72-.08a7.93,7.93,0,0,0-5.77,2.24,7.68,7.68,0,0,0-2.39,5.68l-.28,33.09a4.79,4.79,0,1,1-9.58-.08l.28-33.1a17.35,17.35,0,0,1,1.45-6.9,18,18,0,0,1,3.82-5.56,17.06,17.06,0,0,1,5.67-3.67,17.78,17.78,0,0,1,6.88-1.27Z"/><path class="cls-1" d="M435.45,72.52a25.29,25.29,0,0,1,10.67,2,28.48,28.48,0,0,1,9.05,6.09,26.88,26.88,0,0,1,6,8.94,27.3,27.3,0,0,1,2,10.71l-.2,23.2a4.82,4.82,0,0,1-8.22,3.34,4.57,4.57,0,0,1-1.35-3.42l.19-23.2a17.52,17.52,0,0,0-5.32-12.81,17.13,17.13,0,0,0-12.94-5.22L420.15,82l-.35,41.29a4.76,4.76,0,0,1-1.52,3.23,4.83,4.83,0,0,1-6.71-.11,4.65,4.65,0,0,1-1.35-3.42l.35-41.07a9.44,9.44,0,0,1,9.66-9.5Z"/><path class="cls-1" d="M541.54,53.77a4.79,4.79,0,1,1,9.58.08L551,73.12l11.71.1a4.79,4.79,0,1,1-.08,9.57l-11.71-.1-.24,28.21a7.79,7.79,0,0,0,2.3,5.76,7.66,7.66,0,0,0,5.62,2.39l3.08,0a4.67,4.67,0,0,1,3.34,1.41,4.76,4.76,0,0,1-.05,6.81,4.67,4.67,0,0,1-3.37,1.35l-3.09,0a16.9,16.9,0,0,1-6.79-1.44,17.66,17.66,0,0,1-9.29-9.5,17.39,17.39,0,0,1-1.32-6.88l.24-28.2-6.07,0a4.79,4.79,0,1,1,.08-9.58l6.07,0Z"/><path class="cls-1" d="M572.27,56.48a7.09,7.09,0,0,1,7.3-7.17,6.83,6.83,0,0,1,5,2.12,7,7,0,0,1,2,5.17,7.09,7.09,0,0,1-7.19,7.07,7,7,0,0,1-5.14-2.12A6.86,6.86,0,0,1,572.27,56.48Zm11.45,68.11a4.79,4.79,0,1,1-9.58-.09l.4-46.39a4.79,4.79,0,1,1,9.58.08Z"/><path class="cls-1" d="M633.73,113.73a4.71,4.71,0,0,1,3.63-1.56,4.33,4.33,0,0,1,3.07,1.19,4.47,4.47,0,0,1,1.68,3.21,4.29,4.29,0,0,1-1.2,3.5,27,27,0,0,1-9.64,7.21,28.1,28.1,0,0,1-11.73,2.4,27.32,27.32,0,0,1-10.83-2.27,28.07,28.07,0,0,1-14.83-15.08,27.91,27.91,0,0,1,6.28-30.65,28.55,28.55,0,0,1,9-5.89A27.45,27.45,0,0,1,620,73.7a26.61,26.61,0,0,1,11.68,2.55,27.93,27.93,0,0,1,9.52,7.32,4.3,4.3,0,0,1,1.14,3.52,5.06,5.06,0,0,1-1.62,3.13,4.47,4.47,0,0,1-3.21,1.3,4.62,4.62,0,0,1-3.6-1.73A17.94,17.94,0,0,0,627.64,85a18.61,18.61,0,0,0-7.7-1.72,18.08,18.08,0,0,0-7.2,1.38,18.35,18.35,0,0,0-9.87,9.7,18.65,18.65,0,0,0-.12,14.37,18.27,18.27,0,0,0,9.7,9.87,18.47,18.47,0,0,0,14.9-.14A18.56,18.56,0,0,0,633.73,113.73Z"/><path class="cls-1" d="M686.42,74.69a4.58,4.58,0,0,1,3.34,1.47,4.71,4.71,0,0,1,1.41,3.47A4.51,4.51,0,0,1,689.7,83a4.66,4.66,0,0,1-3.36,1.36l-23.63-.2a6,6,0,0,0-4.38,1.72,5.77,5.77,0,0,0-1.84,4.29,5.6,5.6,0,0,0,1.45,3.9A5.47,5.47,0,0,0,661.55,96L681,98.59a16.57,16.57,0,0,1,5.36,1.81,14.82,14.82,0,0,1,4.28,3.44,15.58,15.58,0,0,1,2.78,4.7,15.2,15.2,0,0,1,1,5.49,15.65,15.65,0,0,1-15.89,15.62l-25.32-.22a4.79,4.79,0,1,1,.08-9.57l25.32.21A5.89,5.89,0,0,0,683,118.3a6,6,0,0,0,1.85-4.35,5.68,5.68,0,0,0-1.46-3.84,5.37,5.37,0,0,0-3.6-2l-19.45-2.61a14.11,14.11,0,0,1-5.36-1.75,16.28,16.28,0,0,1-4.28-3.44,14.64,14.64,0,0,1-2.78-4.71,15.58,15.58,0,0,1,.31-11.6,15.52,15.52,0,0,1,8.42-8.28,15.53,15.53,0,0,1,6.18-1.17l23.63.2Z"/><path class="cls-1" d="M72.52,39.33a5.6,5.6,0,0,1,2.76-2,10.25,10.25,0,0,1,3.3-.52,7.45,7.45,0,0,1,5.47,2.06,8.22,8.22,0,0,1,2.69,5.78,7.82,7.82,0,0,1-2.25,5.93l-33,35.2L83.73,119a8.36,8.36,0,0,1,2.33,5.87,8.05,8.05,0,0,1-2.61,5.83A7.35,7.35,0,0,1,77.76,133a7.93,7.93,0,0,1-5.83-2.42L34,91.68A7.75,7.75,0,0,1,31.7,86a8.11,8.11,0,0,1,2.24-5.65Z"/><path class="cls-1" d="M727.18,136.27a5.6,5.6,0,0,1-2.76,2,10.53,10.53,0,0,1-3.3.52,7.44,7.44,0,0,1-5.47-2.06,8.22,8.22,0,0,1-2.69-5.78A7.85,7.85,0,0,1,715.2,125l33-35.2L716,56.61a8.36,8.36,0,0,1-2.33-5.87,8.09,8.09,0,0,1,2.61-5.84,7.38,7.38,0,0,1,5.69-2.32A7.89,7.89,0,0,1,727.77,45l37.9,38.92A7.74,7.74,0,0,1,768,89.61a8.11,8.11,0,0,1-2.24,5.65Z"/></svg>